<svg id="FINAL_2" data-name="FINAL 2" xmlns="http://www.w3.org/2000/svg" viewBox="0 0 15.9 15.9"><title>St Peters Website 0.4-3</title><path d="M524.51,27.85l-3.67-3.67,1.42-1.43a0.57,0.57,0,0,1,.8,0l2.86,2.86a0.57,0.57,0,0,1,0,.8l-1.21,1.21a1.45,1.45,0,0,0-.19.23h0Zm3,6c-0.6-.52-1.18-1.07-1.74-1.62s-1.11-1.14-1.62-1.74a1.81,1.81,0,0,1-.29-1.8l-3.77-3.77c-0.88.9-.77,3.14,0.19,5.1a14.26,14.26,0,0,0,1.5,2.35,21.09,21.09,0,0,0,1.8,2.05,20.18,20.18,0,0,0,2,1.8A14,14,0,0,0,528,37.7c2,1,4.2,1.07,5.1.19l-3.77-3.77a1.8,1.8,0,0,1-1.8-.28h0ZM535.25,35l-2.86-2.86a0.57,0.57,0,0,0-.8,0l-0.62.63-0.58.58a1.27,1.27,0,0,1-.23.19l3.67,3.68,1.42-1.42a0.56,0.56,0,0,0,0-.8h0Zm0,0" transform="translate(-519.52 -22.59)"/></svg>