<svg id="FINAL_2" data-name="FINAL 2" xmlns="http://www.w3.org/2000/svg" viewBox="0 0 19.87 17.89"><title>St Peters Website 0.4-4</title><path d="M728.42,33.1c-0.42.22-.14,1.56,0.12,2.05s1.22,1.47,1.64,1.25l0.45-.24,4.94,3.32,1.92-1-4-3.55A24.45,24.45,0,0,1,743.56,34l-5.68-10.66s-3,6.32-8.7,9.36Zm0,0" transform="translate(-728.2 -21.6)"/><path d="M740.67,26.74l1.62,3a1.74,1.74,0,0,0-1.62-3h0Zm0,0" transform="translate(-728.2 -21.6)"/><path d="M743.36,27.18a0.45,0.45,0,0,1,.19-0.61l2.8-1.49a0.45,0.45,0,1,1,.43.8L744,27.37a0.45,0.45,0,0,1-.61-0.19h0Zm0,0" transform="translate(-728.2 -21.6)"/><path d="M741.28,25a0.45,0.45,0,0,1,0-.45l1.68-2.7a0.45,0.45,0,0,1,.62-0.15,0.46,0.46,0,0,1,.15.63L742.07,25a0.45,0.45,0,0,1-.62.14,0.43,0.43,0,0,1-.16-0.17h0Zm0,0" transform="translate(-728.2 -21.6)"/><path d="M744,30.15a0.44,0.44,0,0,1-.05-0.23,0.45,0.45,0,0,1,.47-0.44l3.17,0.11a0.46,0.46,0,0,1,.44.47,0.45,0.45,0,0,1-.47.43l-3.18-.11a0.46,0.46,0,0,1-.38-0.24h0Zm0,0" transform="translate(-728.2 -21.6)"/></svg>