<svg id="FINAL_2" data-name="FINAL 2" xmlns="http://www.w3.org/2000/svg" viewBox="0 0 18.42 18.89"><title>St Peters Website 0.4-2</title><path d="M297.49,24.2V21.1h-9.3l-2.37,2.48V36.89h6.75V40h11.67V24.2h-6.75Zm-4.92,11.55H287V24l1.71-1.79h7.67v2h-3.77v0.29h-4.75v0.9h4.75v1.36l-0.35.2h-4.4v0.9h3.4a4.09,4.09,0,0,0-.82,1.73h-2.58v0.9h2.5a4.14,4.14,0,0,0,.35,1.62h-2.84V33h3.38a3.86,3.86,0,0,0,.33.37,4.12,4.12,0,0,0,1,.76v1.63Zm8.21,0.2a0.56,0.56,0,0,1-.79.79l-3.67-3.68a3.22,3.22,0,1,1,.79-0.79l3.68,3.68h0Zm2.31,2.9h-9.38V34.5a4,4,0,0,0,.73.07,4.14,4.14,0,0,0,1.69-.36l1,1h-2.55v0.9H298l1.31,1.31a1.47,1.47,0,0,0,2.49-1.31h0.41v-0.9h-0.94l-1.62-1.62h2.56v-0.9h-3.46l-0.55-.55a4.07,4.07,0,0,0,.33-1.18h3.68V30h-3.66a4.15,4.15,0,0,0-.47-1.56h4.13v-0.9h-4.78l-0.08-.08a4.12,4.12,0,0,0-2.93-1.21,4.19,4.19,0,0,0-.74.07v-1h9.38v13.5Zm0,0" transform="translate(-285.82 -21.1)"/></svg>