<svg id="FINAL_2" data-name="FINAL 2" xmlns="http://www.w3.org/2000/svg" viewBox="0 0 84.99 48"><defs><style>.cls-1{fill:#fff;}.cls-2{fill:none;stroke:#fff;stroke-miterlimit:10;}.cls-3{opacity:0.9;}</style></defs><title>St Peters Website 0.4-church-logo-up</title><path class="cls-1" d="M24,118.54H18.91a0.51,0.51,0,0,1,0-1H24v-15h3v-8H20v-4h3.88a10.51,10.51,0,0,1,2.57-6.89c1.63-1.74,3.94-2.41,6.87-2.41s5.25,0.57,6.87,2.31a10.67,10.67,0,0,1,2.53,7H46v4H39.34a0.51,0.51,0,0,1,0-1H45v-2H41.84l0-.11s0.28-4.2-2.3-7c-1.46-1.56-3.55-2.27-6.24-2.27a8.22,8.22,0,0,0-6.28,2.4,10,10,0,0,0-2.34,6.82l0,0.13H21v2h7v10H24v15Z" transform="translate(-18.5 -70.54)"/><path class="cls-1" d="M103.08,118.54H97v-15H94v-10h6v-2H97.21l0-.11s0.25-4.19-2.34-7c-1.47-1.56-3.57-2.27-6.26-2.27a8.18,8.18,0,0,0-6.26,2.4,9.92,9.92,0,0,0-2.29,6.82l0,0.13H76v2h6.66a0.51,0.51,0,0,1,0,1H75v-4h4.24a10.44,10.44,0,0,1,2.53-6.89c1.62-1.74,3.92-2.41,6.85-2.41s5.26,0.57,6.89,2.31a10.74,10.74,0,0,1,2.57,7H101v4H95v8h3v15h5.08A0.51,0.51,0,0,1,103.08,118.54Z" transform="translate(-18.5 -70.54)"/><path class="cls-1" d="M42.27,92.08a0.41,0.41,0,0,1-.37-0.22,0.43,0.43,0,0,1,.21-0.56L59,82.51v-2h4v2l16.63,8.59a0.39,0.39,0,0,1,.06.56,0.31,0.31,0,0,1-.46.18L62,83V81.54H60V83L42.59,92A1.07,1.07,0,0,1,42.27,92.08Z" transform="translate(-18.5 -70.54)"/><path class="cls-2" d="M62.5,81h-3V76h-3V74h3V71h3v3h3v2h-3v5Z" transform="translate(-18.5 -70.54)"/><g class="cls-3"><g id="_Group_" data-name="&lt;Group&gt;"><g id="_Group_2" data-name="&lt;Group&gt;"><g id="_Group_3" data-name="&lt;Group&gt;"><rect class="cls-1" x="66.7" y="99.09" width="3.75" height="0.6" transform="translate(-68.98 8.66) rotate(-45.78)"/></g><g id="_Group_4" data-name="&lt;Group&gt;"><path class="cls-1" d="M68.1,101L68.58,101a0.11,0.11,0,0,1,.07.18l-0.31.32a0.17,0.17,0,0,0,0,.24l0.49,0.47h0.59a0.24,0.24,0,0,1,0,.34l-0.12.13a0.14,0.14,0,0,0,0,.21l0.76,0.46a0.27,0.27,0,0,0,.33,0l0.49-.5a0.32,0.32,0,0,0,0-.45l-0.24-.23a0.53,0.53,0,0,1,0-.75h0a0.53,0.53,0,0,1,.75,0l0.24,0.23a0.32,0.32,0,0,0,.45,0l0.49-.5a0.27,0.27,0,0,0,0-.33l-0.48-.75a0.14,0.14,0,0,0-.21,0l-0.12.13a0.24,0.24,0,0,1-.34,0l0-.59-0.49-.47a0.17,0.17,0,0,0-.24,0l-0.31.32a0.11,0.11,0,0,1-.18-0.06l-0.07-.48,0.28-.29-0.34-.33-2.61,2.69,0.34,0.33Z" transform="translate(-18.5 -70.54)"/></g></g><g id="_Group_5" data-name="&lt;Group&gt;"><path class="cls-1" d="M53.79,110.51a2.62,2.62,0,1,0-3.66,3.76l1.35,1.31L52,115l-1.34-1.31a1.88,1.88,0,0,1,2.63-2.7l1.34,1.31,0.52-.53-0.47-.46Z" transform="translate(-18.5 -70.54)"/></g><g id="_Group_6" data-name="&lt;Group&gt;"><path class="cls-1" d="M56.93,107.92l-0.64.66,1,1,1-1-0.48-.46-0.23-.22A0.45,0.45,0,0,0,56.93,107.92Z" transform="translate(-18.5 -70.54)"/></g><g id="_Group_7" data-name="&lt;Group&gt;"><path class="cls-1" d="M57.32,109.58l-1-1a0.58,0.58,0,0,0-.16.36l-0.06.76,0.58,0.57Z" transform="translate(-18.5 -70.54)"/></g><g id="_Group_8" data-name="&lt;Group&gt;"><path class="cls-1" d="M56.64,110.27l-0.58-.57a0.64,0.64,0,0,1-.18.4l-1.22,1.26,0.47,0.46Z" transform="translate(-18.5 -70.54)"/></g><g id="_Group_9" data-name="&lt;Group&gt;"><path class="cls-1" d="M69.29,96.32L57.8,108.13l0.48,0.46,12-12.28A0.66,0.66,0,0,0,69.29,96.32Z" transform="translate(-18.5 -70.54)"/></g><g id="_Group_10" data-name="&lt;Group&gt;"><path class="cls-1" d="M52,115l-0.52.53,1.34,1.31a2.62,2.62,0,1,0,3.66-3.76l-0.87-.85-0.47-.46-0.52.53L56,113.66a1.88,1.88,0,0,1-2.63,2.7Z" transform="translate(-18.5 -70.54)"/></g><g id="_Group_11" data-name="&lt;Group&gt;"><path class="cls-1" d="M56.64,110.27l-1.51,1.55,0.47,0.46L56.83,111a0.64,0.64,0,0,1,.39-0.19Z" transform="translate(-18.5 -70.54)"/></g><g id="_Group_12" data-name="&lt;Group&gt;"><path class="cls-1" d="M57.32,109.58l-0.67.69,0.58,0.57,0.76-.08a0.59,0.59,0,0,0,.35-0.17Z" transform="translate(-18.5 -70.54)"/></g><g id="_Group_13" data-name="&lt;Group&gt;"><path class="cls-1" d="M58.27,108.59l-1,1,1,1,0.64-.66a0.45,0.45,0,0,0,0-.64l-0.23-.22Z" transform="translate(-18.5 -70.54)"/></g><g id="_Group_14" data-name="&lt;Group&gt;"><path class="cls-1" d="M70.23,96.31l-12,12.28,0.47,0.46,8.27-8.5L69.52,98l0.72-.74A0.66,0.66,0,0,0,70.23,96.31Z" transform="translate(-18.5 -70.54)"/></g></g><g id="_Group_15" data-name="&lt;Group&gt;"><g id="_Group_16" data-name="&lt;Group&gt;"><g id="_Group_17" data-name="&lt;Group&gt;"><rect class="cls-1" x="53.13" y="97.52" width="0.6" height="3.75" transform="translate(-72.68 -5.12) rotate(-44.22)"/></g><g id="_Group_18" data-name="&lt;Group&gt;"><path class="cls-1" d="M53.89,101l-0.48.05a0.11,0.11,0,0,0-.06.18l0.31,0.32a0.17,0.17,0,0,1,0,.24l-0.49.47H52.58a0.24,0.24,0,0,0,0,.34l0.12,0.13a0.14,0.14,0,0,1,0,.21l-0.76.46a0.27,0.27,0,0,1-.33,0l-0.49-.5a0.32,0.32,0,0,1,0-.45l0.24-.23a0.53,0.53,0,0,0,0-.75h0a0.53,0.53,0,0,0-.75,0l-0.24.23a0.32,0.32,0,0,1-.45,0l-0.49-.5a0.27,0.27,0,0,1,0-.33l0.48-.75a0.14,0.14,0,0,1,.21,0l0.12,0.13a0.24,0.24,0,0,0,.34,0l0-.59L51,99.1a0.17,0.17,0,0,1,.24,0l0.31,0.32a0.11,0.11,0,0,0,.18-0.06l0.07-.48-0.28-.29,0.34-.33,2.61,2.69-0.34.33Z" transform="translate(-18.5 -70.54)"/></g></g><g id="_Group_19" data-name="&lt;Group&gt;"><path class="cls-1" d="M68.2,110.51a2.62,2.62,0,1,1,3.66,3.76l-1.34,1.31L70,115l1.34-1.31a1.88,1.88,0,0,0-2.63-2.7l-1.34,1.31-0.52-.53,0.47-.46Z" transform="translate(-18.5 -70.54)"/></g><g id="_Group_20" data-name="&lt;Group&gt;"><path class="cls-1" d="M65.07,107.92l0.64,0.66-1,1-1-1,0.47-.46,0.23-.22A0.45,0.45,0,0,1,65.07,107.92Z" transform="translate(-18.5 -70.54)"/></g><g id="_Group_21" data-name="&lt;Group&gt;"><path class="cls-1" d="M64.68,109.58l1-1a0.58,0.58,0,0,1,.16.36l0.06,0.76-0.58.57Z" transform="translate(-18.5 -70.54)"/></g><g id="_Group_22" data-name="&lt;Group&gt;"><path class="cls-1" d="M65.35,110.27l0.58-.57a0.64,0.64,0,0,0,.18.4l1.22,1.26-0.47.46Z" transform="translate(-18.5 -70.54)"/></g><g id="_Group_23" data-name="&lt;Group&gt;"><path class="cls-1" d="M52.7,96.32L64.2,108.13l-0.47.46-12-12.28A0.66,0.66,0,0,1,52.7,96.32Z" transform="translate(-18.5 -70.54)"/></g><g id="_Group_24" data-name="&lt;Group&gt;"><path class="cls-1" d="M70,115l0.52,0.53-1.34,1.31a2.62,2.62,0,1,1-3.66-3.76l0.87-.85,0.47-.46,0.52,0.53L66,113.66a1.88,1.88,0,0,0,2.63,2.7Z" transform="translate(-18.5 -70.54)"/></g><g id="_Group_25" data-name="&lt;Group&gt;"><path class="cls-1" d="M65.35,110.27l1.51,1.55-0.47.46L65.16,111a0.64,0.64,0,0,0-.39-0.19Z" transform="translate(-18.5 -70.54)"/></g><g id="_Group_26" data-name="&lt;Group&gt;"><path class="cls-1" d="M64.68,109.58l0.67,0.69-0.58.57L64,110.75a0.58,0.58,0,0,1-.35-0.17Z" transform="translate(-18.5 -70.54)"/></g><g id="_Group_27" data-name="&lt;Group&gt;"><path class="cls-1" d="M63.72,108.59l1,1-1,1L63,109.92a0.45,0.45,0,0,1,0-.64l0.23-.22Z" transform="translate(-18.5 -70.54)"/></g><g id="_Group_28" data-name="&lt;Group&gt;"><path class="cls-1" d="M51.77,96.31l12,12.28-0.47.46L55,100.56,52.48,98l-0.72-.74A0.66,0.66,0,0,1,51.77,96.31Z" transform="translate(-18.5 -70.54)"/></g></g></g></svg>