<svg id="FINAL_2" data-name="FINAL 2" xmlns="http://www.w3.org/2000/svg" viewBox="0 0 278 148"><defs><style>.cls-1{opacity:0.07;}.cls-2{fill:none;}.cls-2,.cls-3{stroke:#000;stroke-linecap:round;stroke-miterlimit:10;stroke-width:3px;}.cls-3{fill:#fff;}.cls-4{opacity:0.9;}</style></defs><title>St Peters Website 0.4-church-logo</title><g class="cls-1"><path class="cls-2" d="M718,997h19.5v-9H727.2s2.39-33-29.35-33h-0.07c-31.74,0-29.55,33-29.55,33H655.5v9h23v30h-11v50H651" transform="translate(-649.5 -930.54)"/><path class="cls-2" d="M859,997H836.5v-9h13.3s-2.39-33,29.35-33h0.07c31.74,0,29.55,33,29.55,33H919.5v9h-22v30h10v50H926" transform="translate(-649.5 -930.54)"/><polyline class="cls-2" points="198.92 56.68 143 28.12 143 23.5 139.14 23.5 135 23.5 135 28.12 78.42 57.31"/><polygon class="cls-3" points="146 5.5 141 5.5 141 1.5 135 1.5 135 5.5 131 5.5 131 8.5 135 8.5 135 23.5 141 23.5 141 8.5 146 8.5 146 5.5"/><g class="cls-4"><g id="_Group_" data-name="&lt;Group&gt;"><g id="_Group_2" data-name="&lt;Group&gt;"><g id="_Group_3" data-name="&lt;Group&gt;"><rect x="807.25" y="1012.21" width="12.29" height="1.97" transform="translate(-1129.49 -41.17) rotate(-45.77)"/></g><g id="_Group_4" data-name="&lt;Group&gt;"><path d="M811.86,1018.41l1.56,0.17a0.35,0.35,0,0,1,.21.6l-1,1a0.57,0.57,0,0,0,0,.8l1.59,1.55,1.95,0a0.78,0.78,0,0,1,0,1.11l-0.4.41a0.45,0.45,0,0,0,.09.7l2.5,1.5a0.9,0.9,0,0,0,1.09-.15l1.6-1.64a1.05,1.05,0,0,0,0-1.49l-0.78-.76a1.73,1.73,0,0,1,0-2.45h0a1.74,1.74,0,0,1,2.45,0l0.78,0.76a1.05,1.05,0,0,0,1.49,0l1.59-1.64a0.88,0.88,0,0,0,.11-1.09l-1.56-2.47a0.45,0.45,0,0,0-.7-0.07l-0.4.42a0.79,0.79,0,0,1-1.11,0l-0.08-1.95-1.59-1.55a0.56,0.56,0,0,0-.8,0l-1,1a0.35,0.35,0,0,1-.6-0.19l-0.22-1.56,0.93-1-1.11-1.08-8.57,8.81,1.11,1.08Z" transform="translate(-649.5 -930.54)"/></g></g><g id="_Group_5" data-name="&lt;Group&gt;"><path d="M764.93,1049.65a8.6,8.6,0,1,0-12,12.33l4.41,4.29,1.69-1.74-4.41-4.29a6.17,6.17,0,0,1,8.61-8.85l4.41,4.29,1.69-1.74-1.56-1.51Z" transform="translate(-649.5 -930.54)"/></g><g id="_Group_6" data-name="&lt;Group&gt;"><path d="M775.22,1041.15l-2.1,2.16,3.37,3.28,3.14-3.23-1.56-1.52-0.75-.72A1.49,1.49,0,0,0,775.22,1041.15Z" transform="translate(-649.5 -930.54)"/></g><g id="_Group_7" data-name="&lt;Group&gt;"><path d="M776.49,1046.59l-3.37-3.28a1.88,1.88,0,0,0-.54,1.17l-0.2,2.51,1.91,1.86Z" transform="translate(-649.5 -930.54)"/></g><g id="_Group_8" data-name="&lt;Group&gt;"><path d="M774.29,1048.85l-1.91-1.86a2.1,2.1,0,0,1-.59,1.31l-4,4.12,1.56,1.51Z" transform="translate(-649.5 -930.54)"/></g><g id="_Group_9" data-name="&lt;Group&gt;"><path d="M815.76,1003.12l-37.69,38.73,1.56,1.52,39.2-40.28A2.18,2.18,0,0,0,815.76,1003.12Z" transform="translate(-649.5 -930.54)"/></g><g id="_Group_10" data-name="&lt;Group&gt;"><path d="M759,1064.53l-1.69,1.74,4.41,4.29a8.6,8.6,0,1,0,12-12.33l-2.85-2.78-1.56-1.52-1.69,1.74,4.41,4.29a6.17,6.17,0,0,1-8.61,8.85Z" transform="translate(-649.5 -930.54)"/></g><g id="_Group_11" data-name="&lt;Group&gt;"><path d="M774.29,1048.85l-5,5.09,1.56,1.52,4-4.13a2.11,2.11,0,0,1,1.29-.62Z" transform="translate(-649.5 -930.54)"/></g><g id="_Group_12" data-name="&lt;Group&gt;"><path d="M776.49,1046.59l-2.2,2.26,1.91,1.86,2.5-.27a1.92,1.92,0,0,0,1.16-.57Z" transform="translate(-649.5 -930.54)"/></g><g id="_Group_13" data-name="&lt;Group&gt;"><path d="M779.63,1043.36l-3.14,3.23,3.37,3.28,2.1-2.16a1.49,1.49,0,0,0,0-2.1l-0.75-.73Z" transform="translate(-649.5 -930.54)"/></g><g id="_Group_14" data-name="&lt;Group&gt;"><path d="M818.83,1003.08l-39.2,40.28,1.56,1.52L808.29,1017l8.21-8.44,2.37-2.43A2.17,2.17,0,0,0,818.83,1003.08Z" transform="translate(-649.5 -930.54)"/></g></g><g id="_Group_15" data-name="&lt;Group&gt;"><g id="_Group_16" data-name="&lt;Group&gt;"><g id="_Group_17" data-name="&lt;Group&gt;"><rect x="762.75" y="1007.05" width="1.97" height="12.29" transform="translate(-1139.71 -110.95) rotate(-44.21)"/></g><g id="_Group_18" data-name="&lt;Group&gt;"><path d="M765.27,1018.41l-1.57.17a0.35,0.35,0,0,0-.21.6l1,1a0.57,0.57,0,0,1,0,.8l-1.6,1.55-1.95,0a0.79,0.79,0,0,0,0,1.11l0.4,0.41a0.45,0.45,0,0,1-.09.7l-2.5,1.5a0.9,0.9,0,0,1-1.09-.15l-1.6-1.64a1.05,1.05,0,0,1,0-1.49l0.78-.76a1.73,1.73,0,0,0,0-2.45h0a1.74,1.74,0,0,0-2.45,0l-0.78.76a1.05,1.05,0,0,1-1.49,0l-1.59-1.64a0.88,0.88,0,0,1-.11-1.09l1.56-2.47a0.45,0.45,0,0,1,.71-0.07l0.4,0.42a0.79,0.79,0,0,0,1.11,0l0.08-1.95,1.6-1.55a0.56,0.56,0,0,1,.8,0l1,1a0.35,0.35,0,0,0,.6-0.19l0.22-1.56-0.93-1,1.11-1.08,8.57,8.81-1.11,1.08Z" transform="translate(-649.5 -930.54)"/></g></g><g id="_Group_19" data-name="&lt;Group&gt;"><path d="M812.2,1049.65a8.6,8.6,0,1,1,12,12.33l-4.41,4.29-1.69-1.74,4.41-4.29a6.18,6.18,0,0,0-8.61-8.85l-4.41,4.29-1.69-1.74,1.56-1.51Z" transform="translate(-649.5 -930.54)"/></g><g id="_Group_20" data-name="&lt;Group&gt;"><path d="M801.91,1041.15l2.1,2.16-3.37,3.28-3.14-3.23,1.55-1.52,0.75-.72A1.49,1.49,0,0,1,801.91,1041.15Z" transform="translate(-649.5 -930.54)"/></g><g id="_Group_21" data-name="&lt;Group&gt;"><path d="M800.64,1046.59l3.37-3.28a1.91,1.91,0,0,1,.54,1.17l0.2,2.51-1.91,1.86Z" transform="translate(-649.5 -930.54)"/></g><g id="_Group_22" data-name="&lt;Group&gt;"><path d="M802.84,1048.85l1.91-1.86a2.11,2.11,0,0,0,.59,1.31l4,4.12-1.56,1.51Z" transform="translate(-649.5 -930.54)"/></g><g id="_Group_23" data-name="&lt;Group&gt;"><path d="M761.37,1003.12l37.69,38.73-1.55,1.52-39.2-40.28A2.17,2.17,0,0,1,761.37,1003.12Z" transform="translate(-649.5 -930.54)"/></g><g id="_Group_24" data-name="&lt;Group&gt;"><path d="M818.1,1064.53l1.69,1.74-4.41,4.29a8.6,8.6,0,1,1-12-12.33l2.85-2.78,1.56-1.52,1.69,1.74-4.41,4.29a6.17,6.17,0,0,0,8.61,8.85Z" transform="translate(-649.5 -930.54)"/></g><g id="_Group_25" data-name="&lt;Group&gt;"><path d="M802.84,1048.85l5,5.09-1.56,1.52-4-4.13a2.11,2.11,0,0,0-1.29-.62Z" transform="translate(-649.5 -930.54)"/></g><g id="_Group_26" data-name="&lt;Group&gt;"><path d="M800.64,1046.59l2.2,2.26-1.91,1.86-2.5-.27a1.9,1.9,0,0,1-1.16-.57Z" transform="translate(-649.5 -930.54)"/></g><g id="_Group_27" data-name="&lt;Group&gt;"><path d="M797.5,1043.36l3.14,3.23-3.37,3.28-2.1-2.16a1.48,1.48,0,0,1,0-2.1l0.75-.73Z" transform="translate(-649.5 -930.54)"/></g><g id="_Group_28" data-name="&lt;Group&gt;"><path d="M758.3,1003.08l39.2,40.28-1.56,1.52L768.84,1017l-8.21-8.44-2.37-2.43A2.17,2.17,0,0,1,758.3,1003.08Z" transform="translate(-649.5 -930.54)"/></g></g></g></g></svg>