<svg id="FINAL_2" data-name="FINAL 2" xmlns="http://www.w3.org/2000/svg" viewBox="0 0 22.73 16.67"><defs><style>.cls-1{fill:#fff;}</style></defs><title>St Peters Website 0.4-youtube</title><path class="cls-1" d="M1037,4297.38a5.27,5.27,0,0,0-.9-2.36,3.18,3.18,0,0,0-2.28-1c-3.18-.24-8-0.24-8-0.24h0s-4.77,0-8,.24a3.18,3.18,0,0,0-2.28,1,5.29,5.29,0,0,0-.9,2.35,37.11,37.11,0,0,0-.23,3.84v1.8a37.15,37.15,0,0,0,.23,3.84,5.28,5.28,0,0,0,.9,2.35,3.74,3.74,0,0,0,2.51,1c1.82,0.18,7.73.24,7.73,0.24s4.78,0,8-.25a3.18,3.18,0,0,0,2.28-1,5.27,5.27,0,0,0,.9-2.35,37.06,37.06,0,0,0,.23-3.83v-1.8A37.11,37.11,0,0,0,1037,4297.38Zm-7.34,4.49-6.14,3.32v-6.66l2.77,1.51Z" transform="translate(-1014.51 -4293.78)"/></svg>