<svg id="FINAL_2" data-name="FINAL 2" xmlns="http://www.w3.org/2000/svg" viewBox="0 0 20.78 20.77"><title>St Peters Website 0.4</title><path d="M97.41,26.5A10.38,10.38,0,1,0,83.8,40.1a10.11,10.11,0,0,0,4,.83A10.42,10.42,0,0,0,98.24,30.53a10.09,10.09,0,0,0-.83-4h0Zm-1.66,8.62a9.12,9.12,0,0,1-3.34,3.33,9,9,0,0,1-4.58,1.23A8.82,8.82,0,0,1,84.29,39a8.92,8.92,0,0,1-4.85-4.86,9.19,9.19,0,0,1,.5-8.12,9.11,9.11,0,0,1,3.33-3.33,9.13,9.13,0,0,1,9.15,0A9.15,9.15,0,0,1,95.75,26a9.16,9.16,0,0,1,0,9.16h0Zm0,0" transform="translate(-77.46 -20.16)"/><path d="M88.49,30.44V24.56a0.66,0.66,0,0,0-.66-0.64,0.64,0.64,0,0,0-.62.64v6a0.49,0.49,0,0,1,0,.09,0.6,0.6,0,0,0,.17.51l3.4,3.4a0.65,0.65,0,0,0,.87,0,0.61,0.61,0,0,0,0-.89Zm0,0" transform="translate(-77.46 -20.16)"/></svg>